Coordinates
version=1
nRows=13
nColumns=40
inDegrees=yes

Units are S.I. units (second, meters, Newtons, ...)
If the header above contains a line with 'inDegrees', this indicates whether rotational values are in degrees (yes) or radians (no).

endheader
time	pelvis_tilt	pelvis_list	pelvis_rotation	pelvis_tx	pelvis_ty	pelvis_tz	hip_flexion_r	hip_adduction_r	hip_rotation_r	knee_angle_r	knee_angle_r_beta	ankle_angle_r	subtalar_angle_r	mtp_angle_r	hip_flexion_l	hip_adduction_l	hip_rotation_l	knee_angle_l	knee_angle_l_beta	ankle_angle_l	subtalar_angle_l	mtp_angle_l	lumbar_extension	lumbar_bending	lumbar_rotation	arm_flex_r	arm_add_r	arm_rot_r	elbow_flex_r	pro_sup_r	wrist_flex_r	wrist_dev_r	arm_flex_l	arm_add_l	arm_rot_l	elbow_flex_l	pro_sup_l	wrist_flex_l	wrist_dev_l
      1.77000000	     -9.39471636	     -4.51208685	      2.06490957	      0.16059839	      0.50889831	     -1.22209276	     86.79951771	    -46.51596499	      8.12787180	    111.94547017	      1.95381704	     29.76076961	     14.15525444	      0.00000000	     98.65141237	    -42.04797404	     20.68546082	    112.76405839	      1.96810410	     29.59140199	     20.33291715	      0.00000000	    -29.99291877	      6.36909686	     -5.78400143	     44.99694549	    -15.00017581	     44.99694549	     75.00017587	     45.00000026	      0.00000000	      0.00000000	     44.99694549	    -15.00017581	     44.99694549	     75.00017587	     45.00000026	      0.00000000	      0.00000000
      1.77500000	     -9.19684056	     -4.38856639	      1.91815396	      0.16075828	      0.50756244	     -1.22176577	     87.03037055	    -46.39584992	      8.60961445	    112.19088702	      1.95810037	     29.81600649	     14.33321285	      0.00000000	     98.59917682	    -42.30107302	     20.75292649	    113.00329062	      1.97227949	     29.69263171	     20.52431303	      0.00000000	    -30.30977418	      6.13304487	     -5.62193696	     44.99708777	    -15.00016428	     44.99708777	     75.00017587	     45.00000026	      0.00000000	      0.00000000	     44.99708777	    -15.00016428	     44.99708777	     75.00017587	     45.00000026	      0.00000000	      0.00000000
      1.78000000	     -9.07793013	     -4.44561067	      1.97717761	      0.16088782	      0.50600935	     -1.22204085	     87.12165575	    -46.52657798	      8.77392907	    112.41866463	      1.96207584	     29.88730852	     14.51318582	      0.00000000	     98.81224209	    -42.23126176	     21.06642701	    113.25299276	      1.97663761	     29.76506837	     20.59967306	      0.00000000	    -30.51461532	      6.25143374	     -5.61965331	     44.99722326	    -15.00015351	     44.99722326	     75.00017587	     45.00000026	      0.00000000	      0.00000000	     44.99722326	    -15.00015351	     44.99722326	     75.00017587	     45.00000026	      0.00000000	      0.00000000
      1.78500000	     -8.98340699	     -4.45473431	      2.04202716	      0.16101196	      0.50438327	     -1.22236277	     87.30195684	    -46.65620585	      9.04974783	    112.63317176	      1.96581969	     29.97188728	     14.65399174	      0.00000000	     98.99270203	    -42.14016266	     21.30575342	    113.52361490	      1.98136086	     29.84874163	     20.66570724	      0.00000000	    -30.65078550	      6.34837871	     -5.66186153	     44.99734285	    -15.00014429	     44.99734285	     75.00017586	     45.00000026	      0.00000000	      0.00000000	     44.99734285	    -15.00014429	     44.99734285	     75.00017586	     45.00000026	      0.00000000	      0.00000000
      1.79000000	     -8.65968786	     -4.33987905	      1.89872563	      0.16118492	      0.50347830	     -1.22203337	     87.32395058	    -46.53613239	      9.45436596	    112.85898307	      1.96976085	     30.07098011	     14.78447067	      0.00000000	     98.75591721	    -42.41045624	     21.35138624	    113.72418816	      1.98486152	     30.00404054	     20.86559943	      0.00000000	    -31.16671874	      6.10896652	     -5.46921967	     44.99746756	    -15.00013469	     44.99746756	     75.00017586	     45.00000026	      0.00000000	      0.00000000	     44.99746756	    -15.00013469	     44.99746756	     75.00017586	     45.00000026	      0.00000000	      0.00000000
      1.79500000	     -8.56432321	     -4.44485051	      1.95964073	      0.16133307	      0.50182882	     -1.22241712	     87.37949521	    -46.65995230	      9.56297138	    113.06261165	      1.97331483	     30.12809202	     15.00634178	      0.00000000	     99.06305689	    -42.31166713	     21.75164212	    114.00403877	      1.98974584	     30.08242236	     20.93309981	      0.00000000	    -31.30262352	      6.26427623	     -5.51665990	     44.99758050	    -15.00012625	     44.99758050	     75.00017586	     45.00000026	      0.00000000	      0.00000000	     44.99758050	    -15.00012625	     44.99758050	     75.00017586	     45.00000026	      0.00000000	      0.00000000
      1.80000000	     -8.35156625	     -4.19458378	      1.83436949	      0.16145197	      0.50054199	     -1.22205786	     87.77140358	    -46.57201270	     10.26279129	    113.32036382	      1.97781346	     30.19421076	     15.15397905	      0.00000000	     98.80038577	    -42.52325984	     21.61536468	    114.22220446	      1.99355355	     30.22422245	     21.03491183	      0.00000000	    -31.63221437	      6.04718899	     -5.21173258	     44.99777162	    -15.00011229	     44.99777162	     75.00017586	     45.00000026	      0.00000000	      0.00000000	     44.99777162	    -15.00011229	     44.99777162	     75.00017586	     45.00000026	      0.00000000	      0.00000000
      1.80500000	     -8.15959718	     -3.84433390	      1.57103541	      0.16154401	      0.49906226	     -1.22134891	     88.37576783	    -46.30936707	     11.17513805	    113.60582225	      1.98279565	     30.19649914	     15.18493623	      0.00000000	     98.50967796	    -42.90597816	     21.40224760	    114.45444246	      1.99760686	     30.28508793	     21.25862295	      0.00000000	    -31.92511063	      5.64506239	     -4.83403404	     44.99796120	    -15.00009876	     44.99796120	     75.00017586	     45.00000026	      0.00000000	      0.00000000	     44.99796120	    -15.00009876	     44.99796120	     75.00017586	     45.00000026	      0.00000000	      0.00000000
      1.81000000	     -7.97847645	     -4.27985844	      1.85180863	      0.16178560	      0.49775864	     -1.22246960	     87.79766276	    -46.68313268	     10.65326031	    113.74924357	      1.98529882	     30.36071572	     15.44612510	      0.00000000	     99.02507598	    -42.50638939	     22.22072850	    114.73421967	      2.00248990	     30.42967721	     21.25624821	      0.00000000	    -32.17134024	      6.14491731	     -5.23258123	     44.99805580	    -15.00009227	     44.99805580	     75.00017586	     45.00000026	      0.00000000	      0.00000000	     44.99805580	    -15.00009227	     44.99805580	     75.00017586	     45.00000026	      0.00000000	      0.00000000
      1.81500000	     -7.77343615	     -4.40560275	      1.90581495	      0.16193169	      0.49643495	     -1.22286198	     87.66475633	    -46.78903186	     10.69096372	    113.93256177	      1.98849833	     30.44755369	     15.63135403	      0.00000000	     99.19911864	    -42.42373865	     22.63921652	    114.99293396	      2.00700531	     30.52456945	     21.33445045	      0.00000000	    -32.45723478	      6.31762477	     -5.23447709	     44.99824554	    -15.00007917	     44.99824554	     75.00017585	     45.00000026	      0.00000000	      0.00000000	     44.99824554	    -15.00007917	     44.99824554	     75.00017585	     45.00000026	      0.00000000	      0.00000000
      1.82000000	     -7.59901511	     -4.44001879	      1.92037614	      0.16212234	      0.49494583	     -1.22309989	     87.71353119	    -46.84600752	     10.93178713	    114.14870100	      1.99227067	     30.52571741	     15.80554236	      0.00000000	     99.31731460	    -42.39827600	     22.93866972	    115.25846401	      2.01163969	     30.63102628	     21.43023619	      0.00000000	    -32.67998925	      6.39761145	     -5.20907991	     44.99840509	    -15.00006870	     44.99840509	     75.00017585	     45.00000026	      0.00000000	      0.00000000	     44.99840509	    -15.00006870	     44.99840509	     75.00017585	     45.00000026	      0.00000000	      0.00000000
      1.82500000	     -7.45364820	     -3.93433713	      1.60892970	      0.16216335	      0.49335376	     -1.22211848	     88.61338719	    -46.51904827	     12.13430186	    114.48034270	      1.99805891	     30.50389783	     15.83622070	      0.00000000	     98.89803484	    -42.83495466	     22.49924951	    115.47756438	      2.01546371	     30.76571270	     21.63185104	      0.00000000	    -32.89807881	      5.78655934	     -4.74523960	     44.99852708	    -15.00006123	     44.99852708	     75.00017585	     45.00000026	      0.00000000	      0.00000000	     44.99852708	    -15.00006123	     44.99852708	     75.00017585	     45.00000026	      0.00000000	      0.00000000
      1.83000000	     -7.20755452	     -4.49084080	      1.92607381	      0.16240238	      0.49217679	     -1.22350933	     87.78050510	    -46.92591331	     11.40035535	    114.56555244	      1.99954610	     30.66390662	     16.13270797	      0.00000000	     99.46522657	    -42.36214102	     23.50092516	    115.77664988	      2.02068374	     30.88346857	     21.60196726	      0.00000000	    -33.22029772	      6.47434781	     -5.16448850	     44.99865244	    -15.00005371	     44.99865244	     75.00017585	     45.00000026	      0.00000000	      0.00000000	     44.99865244	    -15.00005371	     44.99865244	     75.00017585	     45.00000026	      0.00000000	      0.00000000
